<?xml version="1.0" encoding="UTF-8" standalone="no"?>
<!-- Created with Inkscape (http://www.inkscape.org/) -->

<svg
   xmlns:dc="http://purl.org/dc/elements/1.1/"
   xmlns:cc="http://creativecommons.org/ns#"
   xmlns:rdf="http://www.w3.org/1999/02/22-rdf-syntax-ns#"
   xmlns:svg="http://www.w3.org/2000/svg"
   xmlns="http://www.w3.org/2000/svg"
   xmlns:sodipodi="http://sodipodi.sourceforge.net/DTD/sodipodi-0.dtd"
   xmlns:inkscape="http://www.inkscape.org/namespaces/inkscape"
   width="700"
   height="700"
   viewBox="0 0 185.20834 185.20834"
   version="1.1"
   id="svg4575"
   inkscape:version="0.92.0 r15299"
   sodipodi:docname="metlife-logo.svg"
   inkscape:export-filename="C:\Users\suitedoalex\sites\metlife-logo-0.png"
   inkscape:export-xdpi="561.73712"
   inkscape:export-ydpi="561.73712">
  <defs
     id="defs4569">
    <clipPath
       clipPathUnits="userSpaceOnUse"
       id="clipPath40">
      <path
         d="M 42.378,36.611 H 163.173 V 62.556 H 42.378 Z"
         id="path38"
         inkscape:connector-curvature="0" />
    </clipPath>
  </defs>
  <sodipodi:namedview
     id="base"
     pagecolor="#ffffff"
     bordercolor="#666666"
     borderopacity="1.0"
     inkscape:pageopacity="0.0"
     inkscape:pageshadow="2"
     inkscape:zoom="0.49497475"
     inkscape:cx="-328.76428"
     inkscape:cy="451.79633"
     inkscape:document-units="mm"
     inkscape:current-layer="layer1"
     showgrid="false"
     units="px"
     inkscape:window-width="1920"
     inkscape:window-height="1017"
     inkscape:window-x="-8"
     inkscape:window-y="-8"
     inkscape:window-maximized="1" />
  <metadata
     id="metadata4572">
    <rdf:RDF>
      <cc:Work
         rdf:about="">
        <dc:format>image/svg+xml</dc:format>
        <dc:type
           rdf:resource="http://purl.org/dc/dcmitype/StillImage" />
        <dc:title></dc:title>
      </cc:Work>
    </rdf:RDF>
  </metadata>
  <g
     inkscape:label="Camada 1"
     inkscape:groupmode="layer"
     id="layer1"
     transform="translate(0,-111.79161)">
    <g
       transform="matrix(1.2378187,0,0,-1.2378187,-34.612774,265.77135)"
       id="g34"
       inkscape:export-filename="C:\Users\suitedoalex\sites\metlife-logo-2.png"
       inkscape:export-xdpi="118.91283"
       inkscape:export-ydpi="118.91283">
      <g
         id="g36"
         clip-path="url(#clipPath40)">
        <g
           id="g42"
           transform="translate(154.5962,48.0845)">
          <path
             d="m 0,0 c 0,0.257 0.055,0.517 0.167,0.783 0.111,0.266 0.274,0.51 0.488,0.732 0.213,0.223 0.483,0.407 0.809,0.552 0.325,0.146 0.702,0.218 1.13,0.218 0.427,0 0.796,-0.072 1.103,-0.218 C 4.006,1.922 4.262,1.738 4.468,1.515 4.674,1.293 4.828,1.049 4.931,0.783 5.033,0.517 5.085,0.257 5.085,0 Z M 6.805,-3.647 C 6.53,-3.852 6.094,-4.096 5.496,-4.378 4.896,-4.661 4.117,-4.802 3.159,-4.802 2.183,-4.802 1.417,-4.558 0.861,-4.07 0.304,-3.582 0.017,-3.014 0,-2.363 h 8.576 v 0.617 c 0,1.01 -0.127,1.939 -0.384,2.786 C 7.935,1.888 7.553,2.615 7.049,3.223 6.544,3.83 5.924,4.305 5.187,4.648 4.451,4.99 3.595,5.162 2.619,5.162 1.644,5.162 0.771,4.986 0,4.635 -0.77,4.284 -1.421,3.817 -1.952,3.236 -2.483,2.653 -2.889,1.973 -3.171,1.194 c -0.282,-0.78 -0.425,-1.588 -0.425,-2.427 0,-0.959 0.15,-1.836 0.45,-2.632 0.3,-0.796 0.736,-1.476 1.31,-2.041 0.574,-0.565 1.271,-1.006 2.093,-1.323 0.821,-0.316 1.745,-0.475 2.773,-0.475 0.771,0 1.455,0.073 2.055,0.219 0.598,0.145 1.116,0.312 1.553,0.5 0.437,0.188 0.792,0.381 1.065,0.578 0.275,0.196 0.481,0.338 0.618,0.424 z m -40.93,-0.437 c -0.24,-0.171 -0.496,-0.32 -0.77,-0.449 -0.274,-0.128 -0.599,-0.193 -0.976,-0.193 -0.497,0 -0.861,0.159 -1.092,0.476 -0.231,0.317 -0.346,0.766 -0.346,1.349 v 4.75 h 3.108 v 2.902 h -3.108 v 3.227 h -3.698 V 4.751 h -1.906 V 1.849 h 1.906 v -4.546 c 0,-0.753 0.077,-1.438 0.231,-2.054 0.154,-0.616 0.411,-1.143 0.77,-1.579 0.36,-0.437 0.831,-0.78 1.413,-1.028 0.582,-0.248 1.301,-0.372 2.157,-0.372 1.369,0 2.637,0.463 3.8,1.387 z M -2.111,9.04 c -0.547,0.462 -1.155,0.787 -1.823,0.975 -0.667,0.189 -1.327,0.283 -1.977,0.283 -0.617,0 -1.221,-0.099 -1.811,-0.295 C -8.312,9.805 -8.839,9.506 -9.302,9.104 -9.763,8.701 -10.135,8.192 -10.418,7.576 -10.701,6.96 -10.843,6.223 -10.843,5.367 V 4.751 h -1.95 V 1.849 h 1.95 v -9.142 h 3.673 v 9.142 h 2.851 V 4.751 H -7.17 v 0.668 c 0,0.599 0.154,1.061 0.463,1.386 0.308,0.325 0.719,0.488 1.232,0.488 0.326,0 0.642,-0.051 0.951,-0.154 0.307,-0.103 0.59,-0.248 0.848,-0.436 z M -18.363,-7.293 h 3.697 V 4.751 h -1.849 -1.848 z m -12.888,0 h 11.267 v 3.171 h -7.389 V 9.835 h -3.878 z M -52.376,0 c 0,0.257 0.056,0.517 0.167,0.783 0.112,0.266 0.274,0.51 0.489,0.732 0.213,0.223 0.483,0.407 0.809,0.552 0.325,0.146 0.701,0.218 1.129,0.218 0.428,0 0.796,-0.072 1.104,-0.218 0.309,-0.145 0.565,-0.329 0.771,-0.552 0.205,-0.222 0.359,-0.466 0.462,-0.732 0.103,-0.266 0.154,-0.526 0.154,-0.783 z m 6.806,-3.647 c -0.275,-0.205 -0.711,-0.449 -1.31,-0.731 -0.599,-0.283 -1.378,-0.424 -2.337,-0.424 -0.976,0 -1.742,0.244 -2.298,0.732 -0.556,0.488 -0.843,1.056 -0.861,1.707 h 8.578 v 0.617 c 0,1.01 -0.128,1.939 -0.385,2.786 -0.257,0.848 -0.639,1.575 -1.144,2.183 -0.504,0.607 -1.125,1.082 -1.861,1.425 -0.736,0.342 -1.592,0.514 -2.568,0.514 -0.975,0 -1.849,-0.176 -2.62,-0.527 -0.77,-0.351 -1.421,-0.818 -1.951,-1.399 -0.531,-0.583 -0.938,-1.263 -1.22,-2.042 -0.283,-0.78 -0.424,-1.588 -0.424,-2.427 0,-0.959 0.15,-1.836 0.45,-2.632 0.299,-0.796 0.736,-1.476 1.31,-2.041 0.573,-0.565 1.271,-1.006 2.092,-1.323 0.822,-0.316 1.747,-0.475 2.774,-0.475 0.77,0 1.455,0.073 2.054,0.219 0.6,0.145 1.118,0.312 1.554,0.5 0.437,0.188 0.791,0.381 1.066,0.578 0.273,0.196 0.479,0.338 0.616,0.424 z m -29.764,-3.646 h 3.697 l 0.437,11.119 3.75,-6.6 h 2.003 l 3.543,6.677 0.488,-11.196 h 3.878 l -0.796,17.128 h -3.698 l -4.366,-8.037 -4.468,8.037 h -3.672 z m 58.82,13.421 c -1.142,0 -2.085,0.943 -2.085,2.085 0,1.142 0.943,2.085 2.085,2.085 1.171,0 2.085,-0.914 2.085,-2.085 0,-1.142 -0.943,-2.085 -2.085,-2.085"
             style="fill:#000000;fill-opacity:1;fill-rule:nonzero;stroke:none"
             id="path44"
             inkscape:connector-curvature="0" />
        </g>
        <g
           id="g46"
           transform="translate(56.4651,54.1488)">
          <path
             d="m 0,0 c 2.909,-3.851 4.635,-8.649 4.635,-13.851 0,-1.255 -0.102,-2.486 -0.295,-3.686 h 8.421 c 0.733,0 1.327,0.595 1.327,1.329 V 7.076 c 0,0.867 -0.818,1.509 -1.655,1.288 C 7.404,7.036 3.051,4.04 0,0"
             style="fill:#afcb3a;fill-opacity:1;fill-rule:nonzero;stroke:none"
             id="path48"
             inkscape:connector-curvature="0" />
        </g>
        <g
           id="g50"
           transform="translate(52.1256,36.6113)">
          <path
             d="m 0,0 c -0.193,1.201 -0.295,2.432 -0.295,3.687 0,5.202 1.726,10 4.635,13.85 -3.051,4.04 -7.404,7.037 -12.433,8.364 -0.837,0.221 -1.655,-0.42 -1.655,-1.288 V 1.329 C -9.748,0.595 -9.154,0 -8.421,0 Z"
             style="fill:#0096d8;fill-opacity:1;fill-rule:nonzero;stroke:none"
             id="path52"
             inkscape:connector-curvature="0" />
        </g>
        <g
           id="g54"
           transform="translate(56.4651,54.1488)">
          <path
             d="m 0,0 c -2.908,-3.851 -4.635,-8.649 -4.635,-13.851 0,-1.255 0.102,-2.486 0.295,-3.686 h 8.68 c 0.193,1.2 0.295,2.431 0.295,3.686 0,5.202 -1.726,10 -4.635,13.851"
             style="fill:#0061a3;fill-opacity:1;fill-rule:nonzero;stroke:none"
             id="path56"
             inkscape:connector-curvature="0" />
        </g>
      </g>
    </g>
  </g>
</svg>
